<svg width="450" height="437" viewBox="0 0 450 437" fill="none" xmlns="http://www.w3.org/2000/svg">
<rect x="0.779221" y="0.518402" width="448.442" height="435.453" fill="#0099FF"/>
<path d="M265.806 98.4428C247.532 102.732 232.489 111.902 220.675 125.952C209.166 139.745 201.425 157.584 197.451 179.467C195.709 189.06 194.976 198.053 195.253 206.445C195.585 214.539 196.909 221.411 199.228 227.062C183.259 224.328 172.114 218.402 165.794 209.283C159.779 199.908 158.268 186.976 161.262 170.489C165.072 149.505 173.725 130.895 187.222 114.661C200.772 98.1261 217.261 85.9582 236.687 78.1569C256.113 70.3557 276.056 68.2067 296.516 71.7099C302.255 72.6925 307.164 73.9966 311.242 75.6222C315.321 77.2478 319.887 79.7297 324.941 83.0678L326.17 331.325L412.426 94.3379L448.731 100.554L326.648 426.453L274.998 417.61L272.081 187.145L188.915 402.871L153.358 396.783L265.806 98.4428Z" fill="black"/>
<rect x="138.385" y="6" width="155.648" height="361.04" transform="rotate(21 138.385 6)" fill="#0099FF"/>
<g filter="url(#filter0_d_3_8)">
<path d="M65.6882 372.316C58.1446 371.025 51.6677 369.068 46.2576 366.446C40.8476 363.824 36.5742 358.994 33.4374 351.957C30.5045 344.955 30.2326 334.875 32.6217 321.718C35.9564 303.354 44.5135 279.384 58.2931 249.807C72.2765 220.265 88.8333 191.023 107.964 162.08C97.6202 161.157 89.1935 161.834 82.6837 164.111C76.1738 166.387 71.3793 170.795 68.3 177.333C69.1156 177.473 69.6822 178.983 70.0001 181.863C70.5217 184.779 70.5088 187.744 69.9613 190.759C69.0654 195.693 66.7127 199.388 62.9031 201.845C59.1432 204.027 54.8167 204.699 49.9236 203.862C44.2149 202.884 40.0008 200.043 37.2814 195.338C34.562 190.633 33.8991 184.443 35.2927 176.769C36.985 167.449 41.1784 159.406 47.8729 152.639C54.7714 145.907 63.41 141.169 73.7888 138.424C84.2174 135.405 95.2423 134.89 106.864 136.88C111.145 137.613 116.371 138.932 122.542 140.836C145.731 108.066 168.643 82.0317 191.277 62.7325C214.166 43.1941 234.071 34.8736 250.993 37.771C260.779 39.4467 268.484 42.7442 274.108 47.6637L171.145 342.045L127.107 334.505L177.756 189.291C171.058 183.34 164.749 178.727 158.826 175.452C152.904 172.177 146.45 169.518 139.463 167.473C121.72 199.197 105.866 232.093 91.9021 266.16C78.1915 299.987 69.42 327.454 65.5875 348.559C63.6962 358.975 63.7297 366.894 65.6882 372.316ZM221.838 62.878C211.926 67.6811 200.612 77.8964 187.893 93.5237C175.429 108.912 162.496 128.035 149.096 150.894C163.079 157.245 174.644 164.171 183.793 171.672L221.838 62.878Z" fill="black"/>
</g>
<defs>
<filter id="filter0_d_3_8" x="27.013" y="37.2098" width="251.095" height="343.107" filterUnits="userSpaceOnUse" color-interpolation-filters="sRGB">
<feFlood flood-opacity="0" result="BackgroundImageFix"/>
<feColorMatrix in="SourceAlpha" type="matrix" values="0 0 0 0 0 0 0 0 0 0 0 0 0 0 0 0 0 0 127 0" result="hardAlpha"/>
<feOffset dy="4"/>
<feGaussianBlur stdDeviation="2"/>
<feComposite in2="hardAlpha" operator="out"/>
<feColorMatrix type="matrix" values="0 0 0 0 0 0 0 0 0 0 0 0 0 0 0 0 0 0 0.25 0"/>
<feBlend mode="normal" in2="BackgroundImageFix" result="effect1_dropShadow_3_8"/>
<feBlend mode="normal" in="SourceGraphic" in2="effect1_dropShadow_3_8" result="shape"/>
</filter>
</defs>
</svg>
